{
  "accessors": [
    {
      "bufferView": 2,
      "componentType": 5126,
      "count": 5,
      "max": [
        -0.08591700345277786,
        1.3437919616699219,
        2.2619190216064453
      ],
      "min": [
        -2.291090965270996,
        -1.3437919616699219,
        0.6634520292282104
      ],
      "type": "VEC3"
    },
    {
      "bufferView": 2,
      "byteOffset": 60,
      "componentType": 5126,
      "count": 5,
      "max": [
        0.650603711605072,
        -0.01719946786761284,
        0.8975657820701599
      ],
      "min": [
        0.425483763217926,
        -0.291596919298172,
        0.7344042062759399
      ],
      "type": "VEC3"
    },
    {
      "bufferView": 1,
      "componentType": 5126,
      "count": 5,
      "max": [
        1.0,
        1.0
      ],
      "min": [
        0.0,
        0.0
      ],
      "type": "VEC2"
    },
    {
      "bufferView": 0,
      "componentType": 5125,
      "count": 12,
      "type": "SCALAR"
    },
    {
      "bufferView": 2,
      "byteOffset": 120,
      "componentType": 5126,
      "count": 5,
      "max": [
        2.8248589038848877,
        1.1531929969787598,
        1.15693199634552
      ],
      "min": [
        0.09032999724149704,
        -1.1531929969787598,
        -0.47679200768470764
      ],
      "type": "VEC3"
    },
    {
      "bufferView": 2,
      "byteOffset": 180,
      "componentType": 5126,
      "count": 5,
      "max": [
        0.014199710451066494,
        -0.31499001383781433,
        0.9196708798408508
      ],
      "min": [
        -0.49549126625061035,
        -0.7451018691062927,
        0.6164015531539917
      ],
      "type": "VEC3"
    },
    {
      "bufferView": 1,
      "byteOffset": 40,
      "componentType": 5126,
      "count": 5,
      "max": [
        1.0,
        1.0
      ],
      "min": [
        0.0,
        0.0
      ],
      "type": "VEC2"
    },
    {
      "bufferView": 0,
      "byteOffset": 48,
      "componentType": 5125,
      "count": 12,
      "type": "SCALAR"
    }
  ],
  "asset": {
    "extras": {
      "author": "kaiinness (https://sketchfab.com/kaiinness)",
      "license": "CC-BY-4.0 (http://creativecommons.org/licenses/by/4.0/)",
      "source": "https://sketchfab.com/3d-models/low-poly-leaves-25c6b8f79b204be388ed4ea00f74f9a1",
      "title": "LOW POLY leaves"
    },
    "generator": "Sketchfab-16.12.0",
    "version": "2.0"
  },
  "bufferViews": [
    {
      "buffer": 0,
      "byteLength": 96,
      "name": "floatBufferViews",
      "target": 34963
    },
    {
      "buffer": 0,
      "byteLength": 80,
      "byteOffset": 96,
      "byteStride": 8,
      "name": "floatBufferViews",
      "target": 34962
    },
    {
      "buffer": 0,
      "byteLength": 240,
      "byteOffset": 176,
      "byteStride": 12,
      "name": "floatBufferViews",
      "target": 34962
    }
  ],
  "buffers": [
    {
      "byteLength": 416,
      "uri": "scene.bin"
    }
  ],
  "extensionsUsed": [
    "KHR_materials_specular"
  ],
  "images": [
    {
      "uri": "textures/Material.001_baseColor.png"
    },
    {
      "uri": "textures/Material.002_baseColor.png"
    },
    {
      "uri": "textures/Material.002_metallicRoughness.png"
    },
    {
      "uri": "textures/Material.002_specularf0.png"
    }
  ],
  "materials": [
    {
      "alphaMode": "BLEND",
      "doubleSided": true,
      "name": "Material.001",
      "pbrMetallicRoughness": {
        "baseColorTexture": {
          "index": 0
        },
        "metallicFactor": 0.0,
        "roughnessFactor": 0.6
      }
    },
    {
      "alphaMode": "BLEND",
      "doubleSided": true,
      "extensions": {
        "KHR_materials_specular": {
          "specularColorFactor": [
            1.0,
            1.0,
            1.0
          ],
          "specularFactor": 0.5,
          "specularTexture": {
            "index": 3
          }
        }
      },
      "name": "Material.002",
      "pbrMetallicRoughness": {
        "baseColorTexture": {
          "index": 1
        },
        "metallicFactor": 0.0,
        "metallicRoughnessTexture": {
          "index": 2
        },
        "roughnessFactor": 0.5
      }
    }
  ],
  "meshes": [
    {
      "name": "Object_0",
      "primitives": [
        {
          "attributes": {
            "NORMAL": 1,
            "POSITION": 0,
            "TEXCOORD_0": 2
          },
          "indices": 3,
          "material": 0,
          "mode": 4
        }
      ]
    },
    {
      "name": "Object_1",
      "primitives": [
        {
          "attributes": {
            "NORMAL": 5,
            "POSITION": 4,
            "TEXCOORD_0": 6
          },
          "indices": 7,
          "material": 1,
          "mode": 4
        }
      ]
    }
  ],
  "nodes": [
    {
      "children": [
        1
      ],
      "matrix": [
        0.1759011596441269,
        0.0,
        0.0,
        0.0,
        0.0,
        3.9057903499035016e-17,
        -0.1759011596441269,
        0.0,
        0.0,
        0.1759011596441269,
        3.9057903499035016e-17,
        0.0,
        0.0,
        0.0,
        0.0,
        1.0
      ],
      "name": "Sketchfab_model"
    },
    {
      "children": [
        2,
        3
      ],
      "name": "7c179dd49a6d401a823353beac5b8adf.obj.cleaner.materialmerger.gles"
    },
    {
      "mesh": 0,
      "name": "Object_2"
    },
    {
      "mesh": 1,
      "name": "Object_3"
    }
  ],
  "samplers": [
    {
      "magFilter": 9729,
      "minFilter": 9987,
      "wrapS": 10497,
      "wrapT": 10497
    }
  ],
  "scene": 0,
  "scenes": [
    {
      "name": "Sketchfab_Scene",
      "nodes": [
        0
      ]
    }
  ],
  "textures": [
    {
      "sampler": 0,
      "source": 0
    },
    {
      "sampler": 0,
      "source": 1
    },
    {
      "sampler": 0,
      "source": 2
    },
    {
      "sampler": 0,
      "source": 3
    }
  ]
}
